{
  "accessors": [
    {
      "bufferView": 2,
      "componentType": 5126,
      "count": 300,
      "max": [
        1.0,
        1.5563199520111084,
        0.04885999858379364
      ],
      "min": [
        -1.0,
        -1.5563199520111084,
        -0.04885999858379364
      ],
      "type": "VEC3"
    },
    {
      "bufferView": 2,
      "byteOffset": 3600,
      "componentType": 5126,
      "count": 300,
      "max": [
        1.0,
        1.0,
        1.0
      ],
      "min": [
        -1.0,
        -1.0,
        -1.0
      ],
      "type": "VEC3"
    },
    {
      "bufferView": 3,
      "componentType": 5126,
      "count": 300,
      "max": [
        1.0,
        1.0,
        1.0,
        1.0
      ],
      "min": [
        -1.0,
        -1.0,
        -1.0,
        1.0
      ],
      "type": "VEC4"
    },
    {
      "bufferView": 1,
      "componentType": 5126,
      "count": 300,
      "max": [
        0.922819972038269,
        0.970300018787384
      ],
      "min": [
        0.00018000000272877514,
        0.001930000027641654
      ],
      "type": "VEC2"
    },
    {
      "bufferView": 0,
      "componentType": 5125,
      "count": 462,
      "type": "SCALAR"
    },
    {
      "bufferView": 2,
      "byteOffset": 7200,
      "componentType": 5126,
      "count": 48,
      "max": [
        2.766590118408203,
        1.2491799592971802,
        0.09978000074625015
      ],
      "min": [
        0.043529998511075974,
        -1.2491799592971802,
        -0.048659998923540115
      ],
      "type": "VEC3"
    },
    {
      "bufferView": 2,
      "byteOffset": 7776,
      "componentType": 5126,
      "count": 48,
      "max": [
        1.0,
        1.0,
        1.0
      ],
      "min": [
        -1.0,
        -1.0,
        -1.0
      ],
      "type": "VEC3"
    },
    {
      "bufferView": 1,
      "byteOffset": 2400,
      "componentType": 5126,
      "count": 48,
      "max": [
        1.0,
        1.0
      ],
      "min": [
        0.0,
        0.0
      ],
      "type": "VEC2"
    },
    {
      "bufferView": 0,
      "byteOffset": 1848,
      "componentType": 5125,
      "count": 72,
      "type": "SCALAR"
    },
    {
      "bufferView": 2,
      "byteOffset": 8352,
      "componentType": 5126,
      "count": 96,
      "max": [
        1.6406899690628052,
        1.2491799592971802,
        0.09978000074625015
      ],
      "min": [
        0.043529998511075974,
        -1.2491799592971802,
        -0.048659998923540115
      ],
      "type": "VEC3"
    },
    {
      "bufferView": 2,
      "byteOffset": 9504,
      "componentType": 5126,
      "count": 96,
      "max": [
        1.0,
        1.0,
        1.0
      ],
      "min": [
        -1.0,
        -1.0,
        -1.0
      ],
      "type": "VEC3"
    },
    {
      "bufferView": 1,
      "byteOffset": 2784,
      "componentType": 5126,
      "count": 96,
      "max": [
        1.0,
        1.0
      ],
      "min": [
        0.0,
        0.0
      ],
      "type": "VEC2"
    },
    {
      "bufferView": 0,
      "byteOffset": 2136,
      "componentType": 5125,
      "count": 144,
      "type": "SCALAR"
    },
    {
      "bufferView": 2,
      "byteOffset": 10656,
      "componentType": 5126,
      "count": 1024,
      "max": [
        1.5019400119781494,
        2.6335999965667725,
        0.7569900155067444
      ],
      "min": [
        -0.13099999725818634,
        -0.12529000639915466,
        -0.3761500120162964
      ],
      "type": "VEC3"
    },
    {
      "bufferView": 2,
      "byteOffset": 22944,
      "componentType": 5126,
      "count": 1024,
      "max": [
        0.9999020099639893,
        0.9999098777770996,
        0.33537036180496216
      ],
      "min": [
        -0.9999021291732788,
        -0.9999098777770996,
        -1.0
      ],
      "type": "VEC3"
    },
    {
      "bufferView": 1,
      "byteOffset": 3552,
      "componentType": 5126,
      "count": 1024,
      "max": [
        1.0,
        1.0
      ],
      "min": [
        0.0,
        0.0
      ],
      "type": "VEC2"
    },
    {
      "bufferView": 0,
      "byteOffset": 2712,
      "componentType": 5125,
      "count": 1512,
      "type": "SCALAR"
    },
    {
      "bufferView": 2,
      "byteOffset": 35232,
      "componentType": 5126,
      "count": 4,
      "max": [
        0.8523799777030945,
        1.4090100526809692,
        0.04885999858379364
      ],
      "min": [
        -0.8523799777030945,
        -1.4090100526809692,
        0.04885999858379364
      ],
      "type": "VEC3"
    },
    {
      "bufferView": 2,
      "byteOffset": 35280,
      "componentType": 5126,
      "count": 4,
      "max": [
        0.0,
        0.0,
        1.0
      ],
      "min": [
        0.0,
        0.0,
        1.0
      ],
      "type": "VEC3"
    },
    {
      "bufferView": 3,
      "byteOffset": 4800,
      "componentType": 5126,
      "count": 4,
      "max": [
        0.0,
        -1.0,
        0.0,
        1.0
      ],
      "min": [
        0.0,
        -1.0,
        0.0,
        1.0
      ],
      "type": "VEC4"
    },
    {
      "bufferView": 1,
      "byteOffset": 11744,
      "componentType": 5126,
      "count": 4,
      "max": [
        0.9998599886894226,
        0.9050800204277039
      ],
      "min": [
        0.470660001039505,
        0.5849400162696838
      ],
      "type": "VEC2"
    },
    {
      "bufferView": 0,
      "byteOffset": 8760,
      "componentType": 5125,
      "count": 6,
      "type": "SCALAR"
    }
  ],
  "asset": {
    "extras": {
      "author": "Mehmet Kerem Etes (https://sketchfab.com/keremetes)",
      "license": "CC-BY-4.0 (http://creativecommons.org/licenses/by/4.0/)",
      "source": "https://sketchfab.com/3d-models/simple-wooden-table-fd00732030fc46ef9646b0c6062593ed",
      "title": "Simple Wooden Table"
    },
    "generator": "Sketchfab-12.67.0",
    "version": "2.0"
  },
  "bufferViews": [
    {
      "buffer": 0,
      "byteLength": 8784,
      "name": "floatBufferViews",
      "target": 34963
    },
    {
      "buffer": 0,
      "byteLength": 11776,
      "byteOffset": 8784,
      "byteStride": 8,
      "name": "floatBufferViews",
      "target": 34962
    },
    {
      "buffer": 0,
      "byteLength": 35328,
      "byteOffset": 20560,
      "byteStride": 12,
      "name": "floatBufferViews",
      "target": 34962
    },
    {
      "buffer": 0,
      "byteLength": 4864,
      "byteOffset": 55888,
      "byteStride": 16,
      "name": "floatBufferViews",
      "target": 34962
    }
  ],
  "buffers": [
    {
      "byteLength": 60752,
      "uri": "scene.bin"
    }
  ],
  "images": [
    {
      "uri": "textures/centerTOp_baseColor.png"
    },
    {
      "uri": "textures/centerTOp_metallicRoughness.png"
    },
    {
      "uri": "textures/centerTOp_normal.png"
    },
    {
      "uri": "textures/legs_baseColor.jpeg"
    },
    {
      "uri": "textures/MainTable_normal.png"
    }
  ],
  "materials": [
    {
      "doubleSided": true,
      "name": "centerTOp",
      "normalTexture": {
        "index": 2
      },
      "pbrMetallicRoughness": {
        "baseColorTexture": {
          "index": 0
        },
        "metallicRoughnessTexture": {
          "index": 1
        },
        "roughnessFactor": 0.6
      }
    },
    {
      "doubleSided": true,
      "name": "legs",
      "pbrMetallicRoughness": {
        "baseColorTexture": {
          "index": 3
        },
        "roughnessFactor": 0.6
      }
    },
    {
      "doubleSided": true,
      "name": "bottomBorder",
      "pbrMetallicRoughness": {
        "baseColorTexture": {
          "index": 3
        },
        "roughnessFactor": 0.6
      }
    },
    {
      "doubleSided": true,
      "name": "MainTable",
      "normalTexture": {
        "index": 4
      },
      "pbrMetallicRoughness": {
        "baseColorTexture": {
          "index": 3
        },
        "roughnessFactor": 0.4738948170731707
      }
    }
  ],
  "meshes": [
    {
      "name": "Cube.005_0",
      "primitives": [
        {
          "attributes": {
            "NORMAL": 1,
            "POSITION": 0,
            "TANGENT": 2,
            "TEXCOORD_0": 3
          },
          "indices": 4,
          "material": 3,
          "mode": 4
        }
      ]
    },
    {
      "name": "Cube.004_0",
      "primitives": [
        {
          "attributes": {
            "NORMAL": 6,
            "POSITION": 5,
            "TEXCOORD_0": 7
          },
          "indices": 8,
          "material": 2,
          "mode": 4
        }
      ]
    },
    {
      "name": "Cube.003_0",
      "primitives": [
        {
          "attributes": {
            "NORMAL": 10,
            "POSITION": 9,
            "TEXCOORD_0": 11
          },
          "indices": 12,
          "material": 2,
          "mode": 4
        }
      ]
    },
    {
      "name": "Cube.002_0",
      "primitives": [
        {
          "attributes": {
            "NORMAL": 14,
            "POSITION": 13,
            "TEXCOORD_0": 15
          },
          "indices": 16,
          "material": 1,
          "mode": 4
        }
      ]
    },
    {
      "name": "Cube.001_0",
      "primitives": [
        {
          "attributes": {
            "NORMAL": 18,
            "POSITION": 17,
            "TANGENT": 19,
            "TEXCOORD_0": 20
          },
          "indices": 21,
          "material": 0,
          "mode": 4
        }
      ]
    }
  ],
  "nodes": [
    {
      "children": [
        1
      ],
      "matrix": [
        1.0,
        0.0,
        0.0,
        0.0,
        0.0,
        2.220446049250313e-16,
        -1.0,
        0.0,
        0.0,
        1.0,
        2.220446049250313e-16,
        0.0,
        0.0,
        0.0,
        0.0,
        1.0
      ],
      "name": "Sketchfab_model"
    },
    {
      "children": [
        2,
        4,
        6,
        8,
        10
      ],
      "name": "Root"
    },
    {
      "children": [
        3
      ],
      "name": "Cube.005"
    },
    {
      "mesh": 0,
      "name": "Cube.005_0"
    },
    {
      "children": [
        5
      ],
      "matrix": [
        -0.0,
        1.0,
        0.0,
        0.0,
        -0.5389700000000001,
        -0.0,
        0.0,
        0.0,
        0.0,
        0.0,
        1.0,
        0.0,
        -0.003560000000000001,
        -1.40618,
        -0.13648000000000002,
        1.0
      ],
      "name": "Cube.004"
    },
    {
      "mesh": 1,
      "name": "Cube.004_0"
    },
    {
      "children": [
        7
      ],
      "matrix": [
        1.0,
        0.0,
        0.0,
        0.0,
        0.0,
        1.0,
        0.0,
        0.0,
        0.0,
        0.0,
        1.0,
        0.0,
        -0.84211,
        0.0,
        -0.13648000000000002,
        1.0
      ],
      "name": "Cube.003"
    },
    {
      "mesh": 2,
      "name": "Cube.003_0"
    },
    {
      "children": [
        9
      ],
      "matrix": [
        1.0,
        0.0,
        0.0,
        0.0,
        0.0,
        1.0,
        0.0,
        0.0,
        0.0,
        0.0,
        1.0,
        0.0,
        -0.6854700000000001,
        -1.25415,
        -0.78849,
        1.0
      ],
      "name": "Cube.002"
    },
    {
      "mesh": 3,
      "name": "Cube.002_0"
    },
    {
      "children": [
        11
      ],
      "name": "Cube.001"
    },
    {
      "mesh": 4,
      "name": "Cube.001_0"
    }
  ],
  "samplers": [
    {
      "magFilter": 9729,
      "minFilter": 9987,
      "wrapS": 10497,
      "wrapT": 10497
    }
  ],
  "scene": 0,
  "scenes": [
    {
      "name": "Sketchfab_Scene",
      "nodes": [
        0
      ]
    }
  ],
  "textures": [
    {
      "sampler": 0,
      "source": 0
    },
    {
      "sampler": 0,
      "source": 1
    },
    {
      "sampler": 0,
      "source": 2
    },
    {
      "sampler": 0,
      "source": 3
    },
    {
      "sampler": 0,
      "source": 4
    }
  ]
}
