{
  "accessors": [
    {
      "bufferView": 2,
      "componentType": 5126,
      "count": 65532,
      "max": [
        4.973272800445557,
        -0.7426469922065735,
        12.44260311126709
      ],
      "min": [
        -12.020806312561035,
        -18.04627799987793,
        -5.368749141693115
      ],
      "type": "VEC3"
    },
    {
      "bufferView": 2,
      "byteOffset": 786384,
      "componentType": 5126,
      "count": 65532,
      "max": [
        0.9999397397041321,
        0.998399019241333,
        0.9999755024909973
      ],
      "min": [
        -0.9998935461044312,
        -0.9999925494194031,
        -0.9999939799308777
      ],
      "type": "VEC3"
    },
    {
      "bufferView": 3,
      "componentType": 5126,
      "count": 65532,
      "max": [
        0.9999993443489075,
        0.9999997615814209,
        0.9999334812164307,
        1.0
      ],
      "min": [
        -0.9999234676361084,
        -0.9999718070030212,
        -0.9999627470970154,
        -1.0
      ],
      "type": "VEC4"
    },
    {
      "bufferView": 1,
      "componentType": 5126,
      "count": 65532,
      "max": [
        0.9900000095367432,
        1.0
      ],
      "min": [
        0.0,
        0.024143999442458153
      ],
      "type": "VEC2"
    },
    {
      "bufferView": 0,
      "componentType": 5125,
      "count": 348111,
      "type": "SCALAR"
    },
    {
      "bufferView": 2,
      "byteOffset": 1572768,
      "componentType": 5126,
      "count": 65532,
      "max": [
        4.978391170501709,
        -0.5975369811058044,
        12.44260311126709
      ],
      "min": [
        -12.03361988067627,
        -17.668087005615234,
        -5.037416934967041
      ],
      "type": "VEC3"
    },
    {
      "bufferView": 2,
      "byteOffset": 2359152,
      "componentType": 5126,
      "count": 65532,
      "max": [
        0.9999896287918091,
        0.9989998936653137,
        0.9999176263809204
      ],
      "min": [
        -0.9999847412109375,
        -0.9999925494194031,
        -0.9999930262565613
      ],
      "type": "VEC3"
    },
    {
      "bufferView": 3,
      "byteOffset": 1048512,
      "componentType": 5126,
      "count": 65532,
      "max": [
        0.9999882578849792,
        0.9999969601631165,
        0.9999967217445374,
        1.0
      ],
      "min": [
        -0.9999234676361084,
        -0.9999479055404663,
        -0.9998186230659485,
        -1.0
      ],
      "type": "VEC4"
    },
    {
      "bufferView": 1,
      "byteOffset": 524256,
      "componentType": 5126,
      "count": 65532,
      "max": [
        0.9866359829902649,
        1.0
      ],
      "min": [
        0.0,
        0.020103000104427338
      ],
      "type": "VEC2"
    },
    {
      "bufferView": 0,
      "byteOffset": 1392444,
      "componentType": 5125,
      "count": 330969,
      "type": "SCALAR"
    },
    {
      "bufferView": 2,
      "byteOffset": 3145536,
      "componentType": 5126,
      "count": 2967,
      "max": [
        1.4204950332641602,
        -0.7450339794158936,
        12.382014274597168
      ],
      "min": [
        -12.009939193725586,
        -8.957107543945313,
        0.959758996963501
      ],
      "type": "VEC3"
    },
    {
      "bufferView": 2,
      "byteOffset": 3181140,
      "componentType": 5126,
      "count": 2967,
      "max": [
        0.9992103576660156,
        0.8164041042327881,
        0.9999020099639893
      ],
      "min": [
        -0.9999439716339111,
        -0.9999504685401917,
        -0.6031689643859863
      ],
      "type": "VEC3"
    },
    {
      "bufferView": 3,
      "byteOffset": 2097024,
      "componentType": 5126,
      "count": 2967,
      "max": [
        0.9999547004699707,
        0.9999885559082031,
        0.9991204738616943,
        1.0
      ],
      "min": [
        -0.9723199605941772,
        -0.9990134239196777,
        -0.9603542685508728,
        -1.0
      ],
      "type": "VEC4"
    },
    {
      "bufferView": 1,
      "byteOffset": 1048512,
      "componentType": 5126,
      "count": 2967,
      "max": [
        0.8346220254898071,
        0.9888280034065247
      ],
      "min": [
        0.01975099928677082,
        0.20233899354934692
      ],
      "type": "VEC2"
    },
    {
      "bufferView": 0,
      "byteOffset": 2716320,
      "componentType": 5125,
      "count": 9702,
      "type": "SCALAR"
    }
  ],
  "asset": {
    "extras": {
      "author": "Antoine Dresen (https://sketchfab.com/adresen)",
      "license": "CC-BY-4.0 (http://creativecommons.org/licenses/by/4.0/)",
      "source": "https://sketchfab.com/3d-models/old-armchair-3f202edab73e4ce886f8cf5c85810a1c",
      "title": "Old armchair"
    },
    "generator": "Sketchfab-12.63.0",
    "version": "2.0"
  },
  "bufferViews": [
    {
      "buffer": 0,
      "byteLength": 2755128,
      "name": "floatBufferViews",
      "target": 34963
    },
    {
      "buffer": 0,
      "byteLength": 1072248,
      "byteOffset": 2755128,
      "byteStride": 8,
      "name": "floatBufferViews",
      "target": 34962
    },
    {
      "buffer": 0,
      "byteLength": 3216744,
      "byteOffset": 3827376,
      "byteStride": 12,
      "name": "floatBufferViews",
      "target": 34962
    },
    {
      "buffer": 0,
      "byteLength": 2144496,
      "byteOffset": 7044120,
      "byteStride": 16,
      "name": "floatBufferViews",
      "target": 34962
    }
  ],
  "buffers": [
    {
      "byteLength": 9188616,
      "uri": "scene.bin"
    }
  ],
  "extensionsRequired": [
    "KHR_materials_pbrSpecularGlossiness"
  ],
  "extensionsUsed": [
    "KHR_materials_pbrSpecularGlossiness"
  ],
  "images": [
    {
      "uri": "textures/material_0_diffuse.jpeg"
    },
    {
      "uri": "textures/material_0_normal.jpeg"
    },
    {
      "uri": "textures/material_0_occlusion.png"
    }
  ],
  "materials": [
    {
      "doubleSided": true,
      "extensions": {
        "KHR_materials_pbrSpecularGlossiness": {
          "diffuseFactor": [
            1.0,
            1.0,
            1.0,
            1.0
          ],
          "diffuseTexture": {
            "index": 0
          },
          "glossinessFactor": 0.251714939,
          "specularFactor": [
            0.0,
            0.0,
            0.0
          ]
        }
      },
      "name": "material_0",
      "normalTexture": {
        "index": 1,
        "scale": 0.75
      },
      "occlusionTexture": {
        "index": 2,
        "strength": 0.9
      }
    }
  ],
  "meshes": [
    {
      "name": "Object_0",
      "primitives": [
        {
          "attributes": {
            "NORMAL": 1,
            "POSITION": 0,
            "TANGENT": 2,
            "TEXCOORD_0": 3
          },
          "indices": 4,
          "material": 0,
          "mode": 4
        }
      ]
    },
    {
      "name": "Object_1",
      "primitives": [
        {
          "attributes": {
            "NORMAL": 6,
            "POSITION": 5,
            "TANGENT": 7,
            "TEXCOORD_0": 8
          },
          "indices": 9,
          "material": 0,
          "mode": 4
        }
      ]
    },
    {
      "name": "Object_2",
      "primitives": [
        {
          "attributes": {
            "NORMAL": 11,
            "POSITION": 10,
            "TANGENT": 12,
            "TEXCOORD_0": 13
          },
          "indices": 14,
          "material": 0,
          "mode": 4
        }
      ]
    }
  ],
  "nodes": [
    {
      "children": [
        1
      ],
      "matrix": [
        -1.0,
        0.0,
        0.0,
        0.0,
        0.0,
        -1.0,
        -2.220446049250313e-16,
        0.0,
        0.0,
        -2.220446049250313e-16,
        1.0,
        0.0,
        -7.0551958084106445,
        -5.784995555877686,
        5.784995555877685,
        1.0
      ],
      "name": "Sketchfab_model"
    },
    {
      "children": [
        2,
        3,
        4
      ],
      "name": "Fauteuil_low_UV.obj.cleaner.materialmerger.gles"
    },
    {
      "mesh": 0,
      "name": "Object_2"
    },
    {
      "mesh": 1,
      "name": "Object_3"
    },
    {
      "mesh": 2,
      "name": "Object_4"
    }
  ],
  "samplers": [
    {
      "magFilter": 9729,
      "minFilter": 9987,
      "wrapS": 10497,
      "wrapT": 10497
    }
  ],
  "scene": 0,
  "scenes": [
    {
      "name": "Sketchfab_Scene",
      "nodes": [
        0
      ]
    }
  ],
  "textures": [
    {
      "sampler": 0,
      "source": 0
    },
    {
      "sampler": 0,
      "source": 1
    },
    {
      "sampler": 0,
      "source": 2
    }
  ]
}
