{
  "accessors": [
    {
      "bufferView": 2,
      "componentType": 5126,
      "count": 22515,
      "max": [
        4.598166465759277,
        2.296217918395996,
        3.0618574619293213
      ],
      "min": [
        -4.646309852600098,
        -2.1042656898498535,
        -0.0035313963890075684
      ],
      "type": "VEC3"
    },
    {
      "bufferView": 2,
      "byteOffset": 270180,
      "componentType": 5126,
      "count": 22515,
      "max": [
        1.0,
        1.0,
        1.0
      ],
      "min": [
        -1.0,
        -1.0,
        -1.0
      ],
      "type": "VEC3"
    },
    {
      "bufferView": 3,
      "componentType": 5126,
      "count": 22515,
      "max": [
        1.0,
        1.0,
        1.0,
        1.0
      ],
      "min": [
        -1.0,
        -1.0,
        -0.9999787211418152,
        -1.0
      ],
      "type": "VEC4"
    },
    {
      "bufferView": 1,
      "componentType": 5126,
      "count": 22515,
      "max": [
        0.9371091723442078,
        0.9872357249259949
      ],
      "min": [
        0.024669038131833076,
        0.015737395733594894
      ],
      "type": "VEC2"
    },
    {
      "bufferView": 1,
      "byteOffset": 180120,
      "componentType": 5126,
      "count": 22515,
      "max": [
        0.9371091723442078,
        0.9872357249259949
      ],
      "min": [
        0.024669038131833076,
        0.015737395733594894
      ],
      "type": "VEC2"
    },
    {
      "bufferView": 1,
      "byteOffset": 360240,
      "componentType": 5126,
      "count": 22515,
      "max": [
        0.9371091723442078,
        0.9872357249259949
      ],
      "min": [
        0.024669038131833076,
        0.015737395733594894
      ],
      "type": "VEC2"
    },
    {
      "bufferView": 0,
      "componentType": 5125,
      "count": 112488,
      "type": "SCALAR"
    }
  ],
  "asset": {
    "extras": {
      "author": "Heliona (https://sketchfab.com/Heliona)",
      "license": "CC-BY-4.0 (http://creativecommons.org/licenses/by/4.0/)",
      "source": "https://sketchfab.com/3d-models/antique-sofa-5384d703c1094899a45ae0a9a8dee909",
      "title": "Antique Sofa"
    },
    "generator": "Sketchfab-13.28.0",
    "version": "2.0"
  },
  "bufferViews": [
    {
      "buffer": 0,
      "byteLength": 449952,
      "name": "floatBufferViews",
      "target": 34963
    },
    {
      "buffer": 0,
      "byteLength": 540360,
      "byteOffset": 449952,
      "byteStride": 8,
      "name": "floatBufferViews",
      "target": 34962
    },
    {
      "buffer": 0,
      "byteLength": 540360,
      "byteOffset": 990312,
      "byteStride": 12,
      "name": "floatBufferViews",
      "target": 34962
    },
    {
      "buffer": 0,
      "byteLength": 360240,
      "byteOffset": 1530672,
      "byteStride": 16,
      "name": "floatBufferViews",
      "target": 34962
    }
  ],
  "buffers": [
    {
      "byteLength": 1890912,
      "uri": "scene.bin"
    }
  ],
  "images": [
    {
      "uri": "textures/sofa_baseColor.jpeg"
    },
    {
      "uri": "textures/sofa_metallicRoughness.png"
    },
    {
      "uri": "textures/sofa_normal.png"
    }
  ],
  "materials": [
    {
      "doubleSided": true,
      "name": "sofa",
      "normalTexture": {
        "index": 2,
        "scale": 0.6784538179162181
      },
      "occlusionTexture": {
        "index": 1
      },
      "pbrMetallicRoughness": {
        "baseColorTexture": {
          "index": 0
        },
        "metallicRoughnessTexture": {
          "index": 1
        }
      }
    }
  ],
  "meshes": [
    {
      "name": "Cube.019_sofa_0",
      "primitives": [
        {
          "attributes": {
            "NORMAL": 1,
            "POSITION": 0,
            "TANGENT": 2,
            "TEXCOORD_0": 3,
            "TEXCOORD_1": 4,
            "TEXCOORD_2": 5
          },
          "indices": 6,
          "material": 0,
          "mode": 4
        }
      ]
    }
  ],
  "nodes": [
    {
      "children": [
        1
      ],
      "matrix": [
        1.0,
        0.0,
        0.0,
        0.0,
        0.0,
        2.220446049250313e-16,
        -1.0,
        0.0,
        0.0,
        1.0,
        2.220446049250313e-16,
        0.0,
        0.0,
        0.0,
        0.0,
        1.0
      ],
      "name": "Sketchfab_model"
    },
    {
      "children": [
        2
      ],
      "matrix": [
        0.009999999776482582,
        0.0,
        0.0,
        0.0,
        0.0,
        0.0,
        0.009999999776482582,
        0.0,
        0.0,
        -0.009999999776482582,
        0.0,
        0.0,
        0.0,
        0.0,
        0.0,
        1.0
      ],
      "name": "sofa.fbx"
    },
    {
      "children": [
        3
      ],
      "name": "RootNode"
    },
    {
      "children": [
        4
      ],
      "matrix": [
        100.0,
        0.0,
        0.0,
        0.0,
        0.0,
        -1.629206793918314e-05,
        -99.99999999999868,
        0.0,
        0.0,
        99.99999999999868,
        -1.629206793918314e-05,
        0.0,
        0.0,
        0.0,
        0.0,
        1.0
      ],
      "name": "Cube.019"
    },
    {
      "mesh": 0,
      "name": "Cube.019_sofa_0"
    }
  ],
  "samplers": [
    {
      "magFilter": 9729,
      "minFilter": 9987,
      "wrapS": 10497,
      "wrapT": 10497
    }
  ],
  "scene": 0,
  "scenes": [
    {
      "name": "Sketchfab_Scene",
      "nodes": [
        0
      ]
    }
  ],
  "textures": [
    {
      "sampler": 0,
      "source": 0
    },
    {
      "sampler": 0,
      "source": 1
    },
    {
      "sampler": 0,
      "source": 2
    }
  ]
}
