{
  "accessors": [
    {
      "bufferView": 2,
      "componentType": 5126,
      "count": 4,
      "max": [
        167.02890014648438,
        167.02890014648438,
        0.0
      ],
      "min": [
        -167.02890014648438,
        -167.02890014648438,
        0.0
      ],
      "type": "VEC3"
    },
    {
      "bufferView": 2,
      "byteOffset": 48,
      "componentType": 5126,
      "count": 4,
      "max": [
        0.0,
        0.0,
        1.0
      ],
      "min": [
        0.0,
        0.0,
        1.0
      ],
      "type": "VEC3"
    },
    {
      "bufferView": 1,
      "componentType": 5126,
      "count": 4,
      "max": [
        1.0,
        1.0
      ],
      "min": [
        2.9802322387695313e-08,
        2.9802322387695313e-08
      ],
      "type": "VEC2"
    },
    {
      "bufferView": 0,
      "componentType": 5125,
      "count": 6,
      "type": "SCALAR"
    },
    {
      "bufferView": 2,
      "byteOffset": 96,
      "componentType": 5126,
      "count": 65532,
      "max": [
        115.29756927490234,
        28.86749267578125,
        97.81282043457031
      ],
      "min": [
        -113.36029052734375,
        -71.07018280029297,
        44.54772186279297
      ],
      "type": "VEC3"
    },
    {
      "bufferView": 2,
      "byteOffset": 786480,
      "componentType": 5126,
      "count": 65532,
      "max": [
        1.0,
        1.0,
        1.0
      ],
      "min": [
        -1.0,
        -1.0,
        -1.0
      ],
      "type": "VEC3"
    },
    {
      "bufferView": 1,
      "byteOffset": 32,
      "componentType": 5126,
      "count": 65532,
      "max": [
        0.977766752243042,
        0.999500036239624
      ],
      "min": [
        0.0005000000237487257,
        0.0005000000237487257
      ],
      "type": "VEC2"
    },
    {
      "bufferView": 1,
      "byteOffset": 524288,
      "componentType": 5126,
      "count": 65532,
      "max": [
        9.927484512329102,
        9.826377868652344
      ],
      "min": [
        -1.758699893951416,
        -0.44130992889404297
      ],
      "type": "VEC2"
    },
    {
      "bufferView": 0,
      "byteOffset": 24,
      "componentType": 5125,
      "count": 371214,
      "type": "SCALAR"
    },
    {
      "bufferView": 2,
      "byteOffset": 1572864,
      "componentType": 5126,
      "count": 13560,
      "max": [
        103.03894805908203,
        28.86749267578125,
        116.17466735839844
      ],
      "min": [
        -113.05777740478516,
        -67.21085357666016,
        44.67924499511719
      ],
      "type": "VEC3"
    },
    {
      "bufferView": 2,
      "byteOffset": 1735584,
      "componentType": 5126,
      "count": 13560,
      "max": [
        1.0,
        1.0,
        1.0
      ],
      "min": [
        -1.0,
        -1.0,
        -1.0
      ],
      "type": "VEC3"
    },
    {
      "bufferView": 1,
      "byteOffset": 1048544,
      "componentType": 5126,
      "count": 13560,
      "max": [
        0.9928616285324097,
        0.992679238319397
      ],
      "min": [
        0.0005000000237487257,
        0.0005000000237487257
      ],
      "type": "VEC2"
    },
    {
      "bufferView": 1,
      "byteOffset": 1157024,
      "componentType": 5126,
      "count": 13560,
      "max": [
        9.9598970413208,
        9.979999542236328
      ],
      "min": [
        0.020475860685110092,
        0.03525513410568237
      ],
      "type": "VEC2"
    },
    {
      "bufferView": 0,
      "byteOffset": 1484880,
      "componentType": 5125,
      "count": 72108,
      "type": "SCALAR"
    },
    {
      "bufferView": 2,
      "byteOffset": 1898304,
      "componentType": 5126,
      "count": 536,
      "max": [
        99.85035705566406,
        17.749534606933594,
        45.263328552246094
      ],
      "min": [
        -99.2343521118164,
        -57.935203552246094,
        30.34090805053711
      ],
      "type": "VEC3"
    },
    {
      "bufferView": 2,
      "byteOffset": 1904736,
      "componentType": 5126,
      "count": 536,
      "max": [
        1.0,
        0.9749278426170349,
        5.554792096518213e-06
      ],
      "min": [
        -1.0,
        -0.9749298095703125,
        -1.0
      ],
      "type": "VEC3"
    },
    {
      "bufferView": 1,
      "byteOffset": 1265504,
      "componentType": 5126,
      "count": 536,
      "max": [
        0.9924381971359253,
        0.907224178314209
      ],
      "min": [
        0.800086259841919,
        0.0005000000237487257
      ],
      "type": "VEC2"
    },
    {
      "bufferView": 1,
      "byteOffset": 1269792,
      "componentType": 5126,
      "count": 536,
      "max": [
        0.33000001311302185,
        1.3471430540084839
      ],
      "min": [
        -0.3300000727176666,
        -0.2728573679924011
      ],
      "type": "VEC2"
    },
    {
      "bufferView": 0,
      "byteOffset": 1773312,
      "componentType": 5125,
      "count": 1470,
      "type": "SCALAR"
    }
  ],
  "asset": {
    "extras": {
      "author": "MADE.COM (https://sketchfab.com/made-it)",
      "license": "CC-BY-NC-4.0 (http://creativecommons.org/licenses/by-nc/4.0/)",
      "source": "https://sketchfab.com/3d-models/scott-3-seater-sofa-burnt-orange-cotton-velvet-b3ac8e20f12e4c8fa3f7ded38aeb901c",
      "title": "Scott 3 Seater Sofa, Burnt Orange Cotton Velvet"
    },
    "generator": "Sketchfab-12.68.0",
    "version": "2.0"
  },
  "bufferViews": [
    {
      "buffer": 0,
      "byteLength": 1779192,
      "name": "floatBufferViews",
      "target": 34963
    },
    {
      "buffer": 0,
      "byteLength": 1274080,
      "byteOffset": 1779192,
      "byteStride": 8,
      "name": "floatBufferViews",
      "target": 34962
    },
    {
      "buffer": 0,
      "byteLength": 1911168,
      "byteOffset": 3053272,
      "byteStride": 12,
      "name": "floatBufferViews",
      "target": 34962
    }
  ],
  "buffers": [
    {
      "byteLength": 4964440,
      "uri": "scene.bin"
    }
  ],
  "images": [
    {
      "uri": "textures/FLOOR_baseColor.png"
    },
    {
      "uri": "textures/FABRIC_baseColor.jpeg"
    },
    {
      "uri": "textures/FABRIC_metallicRoughness.png"
    }
  ],
  "materials": [
    {
      "alphaMode": "BLEND",
      "doubleSided": true,
      "name": "FLOOR",
      "pbrMetallicRoughness": {
        "baseColorFactor": [
          0.0,
          0.0,
          0.0,
          1.0
        ],
        "baseColorTexture": {
          "index": 0
        },
        "metallicFactor": 0.0
      }
    },
    {
      "doubleSided": true,
      "name": "FABRIC",
      "occlusionTexture": {
        "index": 2,
        "strength": 0.270007622
      },
      "pbrMetallicRoughness": {
        "baseColorTexture": {
          "index": 1
        },
        "metallicFactor": 0.0,
        "metallicRoughnessTexture": {
          "index": 2
        },
        "roughnessFactor": 0.745617378
      }
    },
    {
      "doubleSided": true,
      "name": "WOOD",
      "occlusionTexture": {
        "index": 2
      },
      "pbrMetallicRoughness": {
        "baseColorTexture": {
          "index": 1
        },
        "metallicFactor": 0.0,
        "metallicRoughnessTexture": {
          "index": 2
        },
        "roughnessFactor": 0.7029344512
      }
    }
  ],
  "meshes": [
    {
      "name": "Plane001_FLOOR_0",
      "primitives": [
        {
          "attributes": {
            "NORMAL": 1,
            "POSITION": 0,
            "TEXCOORD_0": 2
          },
          "indices": 3,
          "material": 0,
          "mode": 4
        }
      ]
    },
    {
      "name": "Scott_3_Seater_Sofa_Leather_FABRIC_0",
      "primitives": [
        {
          "attributes": {
            "NORMAL": 5,
            "POSITION": 4,
            "TEXCOORD_0": 6,
            "TEXCOORD_1": 7
          },
          "indices": 8,
          "material": 1,
          "mode": 4
        }
      ]
    },
    {
      "name": "Scott_3_Seater_Sofa_Leather_FABRIC_0",
      "primitives": [
        {
          "attributes": {
            "NORMAL": 10,
            "POSITION": 9,
            "TEXCOORD_0": 11,
            "TEXCOORD_1": 12
          },
          "indices": 13,
          "material": 1,
          "mode": 4
        }
      ]
    },
    {
      "name": "Scott_3_Seater_Sofa_Leather_WOOD_0",
      "primitives": [
        {
          "attributes": {
            "NORMAL": 15,
            "POSITION": 14,
            "TEXCOORD_0": 16,
            "TEXCOORD_1": 17
          },
          "indices": 18,
          "material": 2,
          "mode": 4
        }
      ]
    }
  ],
  "nodes": [
    {
      "children": [
        1
      ],
      "matrix": [
        1.0,
        0.0,
        0.0,
        0.0,
        0.0,
        2.220446049250313e-16,
        -1.0,
        0.0,
        0.0,
        1.0,
        2.220446049250313e-16,
        0.0,
        0.0,
        0.0,
        0.0,
        1.0
      ],
      "name": "Sketchfab_model"
    },
    {
      "children": [
        2
      ],
      "matrix": [
        1.0,
        0.0,
        0.0,
        0.0,
        0.0,
        0.0,
        1.0,
        0.0,
        0.0,
        -1.0,
        0.0,
        0.0,
        0.0,
        0.0,
        0.0,
        1.0
      ],
      "name": "27603afedc9f4d9dbafeaf4528e27cf8.fbx"
    },
    {
      "children": [
        3,
        5
      ],
      "name": "RootNode"
    },
    {
      "children": [
        4
      ],
      "matrix": [
        1.0,
        0.0,
        0.0,
        0.0,
        0.0,
        2.220446049250313e-16,
        -1.0,
        0.0,
        0.0,
        1.0,
        2.220446049250313e-16,
        0.0,
        0.0,
        0.0,
        0.0,
        1.0
      ],
      "name": "Plane001"
    },
    {
      "mesh": 0,
      "name": "Plane001_FLOOR_0"
    },
    {
      "children": [
        6
      ],
      "matrix": [
        1.0,
        0.0,
        0.0,
        0.0,
        0.0,
        2.220446049250313e-16,
        -1.0,
        0.0,
        0.0,
        1.0,
        2.220446049250313e-16,
        0.0,
        0.0,
        0.0,
        0.0,
        1.0
      ],
      "name": "Scott_3_Seater_Sofa_Leather"
    },
    {
      "children": [
        7,
        8,
        9
      ],
      "matrix": [
        1.0,
        0.0,
        -0.0,
        0.0,
        0.0,
        1.0,
        0.0,
        0.0,
        0.0,
        0.0,
        1.0,
        0.0,
        -0.9686393737792969,
        21.101346969604492,
        -30.340900421142578,
        1.0
      ],
      "name": "Object_6"
    },
    {
      "mesh": 1,
      "name": "Scott_3_Seater_Sofa_Leather_FABRIC_0"
    },
    {
      "mesh": 2,
      "name": "Scott_3_Seater_Sofa_Leather_FABRIC_0"
    },
    {
      "mesh": 3,
      "name": "Scott_3_Seater_Sofa_Leather_WOOD_0"
    }
  ],
  "samplers": [
    {
      "magFilter": 9729,
      "minFilter": 9987,
      "wrapS": 10497,
      "wrapT": 10497
    }
  ],
  "scene": 0,
  "scenes": [
    {
      "name": "Sketchfab_Scene",
      "nodes": [
        0
      ]
    }
  ],
  "textures": [
    {
      "sampler": 0,
      "source": 0
    },
    {
      "sampler": 0,
      "source": 1
    },
    {
      "sampler": 0,
      "source": 2
    }
  ]
}
