{
  "accessors": [
    {
      "bufferView": 2,
      "componentType": 5126,
      "count": 6525,
      "max": [
        105.48477935791016,
        9.966550827026367,
        41.62251281738281
      ],
      "min": [
        -106.49653625488281,
        -0.02142995223402977,
        -34.73714828491211
      ],
      "type": "VEC3"
    },
    {
      "bufferView": 2,
      "byteOffset": 78300,
      "componentType": 5126,
      "count": 6525,
      "max": [
        1.0,
        1.0,
        1.0
      ],
      "min": [
        -1.0,
        -1.0,
        -1.0
      ],
      "type": "VEC3"
    },
    {
      "bufferView": 1,
      "componentType": 5126,
      "count": 6525,
      "max": [
        0.5627708435058594,
        0.9898720383644104
      ],
      "min": [
        0.4014945924282074,
        0.8597413301467896
      ],
      "type": "VEC2"
    },
    {
      "bufferView": 0,
      "componentType": 5125,
      "count": 32760,
      "type": "SCALAR"
    },
    {
      "bufferView": 2,
      "byteOffset": 156600,
      "componentType": 5126,
      "count": 12574,
      "max": [
        120.72962951660156,
        78.24267578125,
        49.0216178894043
      ],
      "min": [
        -120.7296371459961,
        8.909025192260742,
        -50.449241638183594
      ],
      "type": "VEC3"
    },
    {
      "bufferView": 2,
      "byteOffset": 307488,
      "componentType": 5126,
      "count": 12574,
      "max": [
        1.0,
        0.9999988675117493,
        0.9999929666519165
      ],
      "min": [
        -1.0,
        -0.9999831318855286,
        -1.0
      ],
      "type": "VEC3"
    },
    {
      "bufferView": 3,
      "componentType": 5126,
      "count": 12574,
      "max": [
        1.0,
        0.9999995231628418,
        0.9999926686286926,
        1.0
      ],
      "min": [
        -1.0,
        -0.9999539852142334,
        -0.9999986290931702,
        -1.0
      ],
      "type": "VEC4"
    },
    {
      "bufferView": 1,
      "byteOffset": 52200,
      "componentType": 5126,
      "count": 12574,
      "max": [
        0.992019772529602,
        0.990530788898468
      ],
      "min": [
        0.008132904767990112,
        0.009086772799491882
      ],
      "type": "VEC2"
    },
    {
      "bufferView": 0,
      "byteOffset": 131040,
      "componentType": 5125,
      "count": 70752,
      "type": "SCALAR"
    }
  ],
  "asset": {
    "extras": {
      "author": "avmkrj (https://sketchfab.com/avmkrj)",
      "license": "CC-BY-4.0 (http://creativecommons.org/licenses/by/4.0/)",
      "source": "https://sketchfab.com/3d-models/sofa-b24a6388b6ae46ce8867129a6b833db2",
      "title": "Sofa"
    },
    "generator": "Sketchfab-13.14.0",
    "version": "2.0"
  },
  "bufferViews": [
    {
      "buffer": 0,
      "byteLength": 414048,
      "name": "floatBufferViews",
      "target": 34963
    },
    {
      "buffer": 0,
      "byteLength": 152792,
      "byteOffset": 414048,
      "byteStride": 8,
      "name": "floatBufferViews",
      "target": 34962
    },
    {
      "buffer": 0,
      "byteLength": 458376,
      "byteOffset": 566840,
      "byteStride": 12,
      "name": "floatBufferViews",
      "target": 34962
    },
    {
      "buffer": 0,
      "byteLength": 201184,
      "byteOffset": 1025216,
      "byteStride": 16,
      "name": "floatBufferViews",
      "target": 34962
    }
  ],
  "buffers": [
    {
      "byteLength": 1226400,
      "uri": "scene.bin"
    }
  ],
  "extensionsRequired": [
    "KHR_materials_pbrSpecularGlossiness"
  ],
  "extensionsUsed": [
    "KHR_materials_pbrSpecularGlossiness"
  ],
  "images": [
    {
      "uri": "textures/Sofa_Stand_diffuse.png"
    },
    {
      "uri": "textures/Sofa_Stand_occlusion.png"
    },
    {
      "uri": "textures/Sofa_Leather_diffuse.png"
    },
    {
      "uri": "textures/Sofa_Leather_specularGlossiness.png"
    },
    {
      "uri": "textures/Sofa_Leather_normal.png"
    }
  ],
  "materials": [
    {
      "doubleSided": true,
      "extensions": {
        "KHR_materials_pbrSpecularGlossiness": {
          "diffuseFactor": [
            1.0,
            1.0,
            1.0,
            1.0
          ],
          "diffuseTexture": {
            "index": 0
          },
          "glossinessFactor": 0.0,
          "specularFactor": [
            0.0,
            0.0,
            0.0
          ]
        }
      },
      "name": "Sofa_Stand",
      "occlusionTexture": {
        "index": 1
      }
    },
    {
      "doubleSided": true,
      "extensions": {
        "KHR_materials_pbrSpecularGlossiness": {
          "diffuseFactor": [
            1.0,
            1.0,
            1.0,
            1.0
          ],
          "diffuseTexture": {
            "index": 2
          },
          "glossinessFactor": 0.6601894405773427,
          "specularFactor": [
            0.05333349587351123,
            0.05333349587351123,
            0.05333349587351123
          ],
          "specularGlossinessTexture": {
            "index": 3
          }
        }
      },
      "name": "Sofa_Leather",
      "normalTexture": {
        "index": 4,
        "scale": 0.5897160829442527
      },
      "occlusionTexture": {
        "index": 1
      }
    }
  ],
  "meshes": [
    {
      "name": "Sofa_Sofa_Stand_0",
      "primitives": [
        {
          "attributes": {
            "NORMAL": 1,
            "POSITION": 0,
            "TEXCOORD_0": 2
          },
          "indices": 3,
          "material": 0,
          "mode": 4
        }
      ]
    },
    {
      "name": "Sofa_Sofa_Leather_0",
      "primitives": [
        {
          "attributes": {
            "NORMAL": 5,
            "POSITION": 4,
            "TANGENT": 6,
            "TEXCOORD_0": 7
          },
          "indices": 8,
          "material": 1,
          "mode": 4
        }
      ]
    }
  ],
  "nodes": [
    {
      "children": [
        1
      ],
      "matrix": [
        1.0,
        0.0,
        0.0,
        0.0,
        0.0,
        2.220446049250313e-16,
        -1.0,
        0.0,
        0.0,
        1.0,
        2.220446049250313e-16,
        0.0,
        0.0,
        0.0,
        0.0,
        1.0
      ],
      "name": "Sketchfab_model"
    },
    {
      "children": [
        2
      ],
      "matrix": [
        0.02539999969303608,
        0.0,
        0.0,
        0.0,
        0.0,
        0.0,
        0.02539999969303608,
        0.0,
        0.0,
        -0.02539999969303608,
        0.0,
        0.0,
        0.0,
        0.0,
        0.0,
        1.0
      ],
      "name": "240aa4c2b34140bc9ad12861522abd4c.fbx"
    },
    {
      "children": [
        3
      ],
      "name": "RootNode"
    },
    {
      "children": [
        4,
        5
      ],
      "matrix": [
        0.3937007784843445,
        0.0,
        0.0,
        0.0,
        0.0,
        0.3937007784843445,
        0.0,
        0.0,
        0.0,
        0.0,
        0.3937007784843445,
        0.0,
        0.0,
        0.0,
        0.0,
        1.0
      ],
      "name": "Sofa"
    },
    {
      "mesh": 0,
      "name": "Sofa_Sofa_Stand_0"
    },
    {
      "mesh": 1,
      "name": "Sofa_Sofa_Leather_0"
    }
  ],
  "samplers": [
    {
      "magFilter": 9729,
      "minFilter": 9987,
      "wrapS": 10497,
      "wrapT": 10497
    }
  ],
  "scene": 0,
  "scenes": [
    {
      "name": "Sketchfab_Scene",
      "nodes": [
        0
      ]
    }
  ],
  "textures": [
    {
      "sampler": 0,
      "source": 0
    },
    {
      "sampler": 0,
      "source": 1
    },
    {
      "sampler": 0,
      "source": 2
    },
    {
      "sampler": 0,
      "source": 3
    },
    {
      "sampler": 0,
      "source": 4
    }
  ]
}
