{
  "accessors": [
    {
      "bufferView": 2,
      "componentType": 5126,
      "count": 60772,
      "max": [
        0.9388059973716736,
        6.335019111633301,
        1.1591449975967407
      ],
      "min": [
        -1.1495939493179321,
        4.324495792388916,
        -0.8180559873580933
      ],
      "type": "VEC3"
    },
    {
      "bufferView": 2,
      "byteOffset": 729264,
      "componentType": 5126,
      "count": 60772,
      "max": [
        0.9999762177467346,
        0.9999208450317383,
        0.9999833703041077
      ],
      "min": [
        -0.9999281167984009,
        -0.999988317489624,
        -0.9998515248298645
      ],
      "type": "VEC3"
    },
    {
      "bufferView": 1,
      "componentType": 5126,
      "count": 60772,
      "max": [
        0.9963160157203674,
        0.9929959774017334
      ],
      "min": [
        0.0,
        0.0
      ],
      "type": "VEC2"
    },
    {
      "bufferView": 0,
      "componentType": 5125,
      "count": 358542,
      "type": "SCALAR"
    },
    {
      "bufferView": 2,
      "byteOffset": 1458528,
      "componentType": 5126,
      "count": 31391,
      "max": [
        0.9932000041007996,
        6.366447925567627,
        1.1591449975967407
      ],
      "min": [
        -1.1546269655227661,
        4.877750873565674,
        -0.6476119756698608
      ],
      "type": "VEC3"
    },
    {
      "bufferView": 2,
      "byteOffset": 1835220,
      "componentType": 5126,
      "count": 31391,
      "max": [
        0.9999483227729797,
        0.9999324679374695,
        0.999953031539917
      ],
      "min": [
        -0.9999963641166687,
        -0.9980290532112122,
        -0.995689868927002
      ],
      "type": "VEC3"
    },
    {
      "bufferView": 1,
      "byteOffset": 486176,
      "componentType": 5126,
      "count": 31391,
      "max": [
        0.9962829947471619,
        0.9978510141372681
      ],
      "min": [
        0.0006300000241026282,
        0.0009660000214353204
      ],
      "type": "VEC2"
    },
    {
      "bufferView": 0,
      "byteOffset": 1434168,
      "componentType": 5125,
      "count": 186222,
      "type": "SCALAR"
    }
  ],
  "asset": {
    "extras": {
      "author": "Terrie Simmons-Ehrhardt (https://sketchfab.com/terrielsimmons)",
      "license": "CC-BY-4.0 (http://creativecommons.org/licenses/by/4.0/)",
      "source": "https://sketchfab.com/3d-models/blueberry-muffin-e48f29f0714a4c70ac75a34cedf6b3bc",
      "title": "Blueberry Muffin"
    },
    "generator": "Sketchfab-12.65.0",
    "version": "2.0"
  },
  "bufferViews": [
    {
      "buffer": 0,
      "byteLength": 2179056,
      "name": "floatBufferViews",
      "target": 34963
    },
    {
      "buffer": 0,
      "byteLength": 737304,
      "byteOffset": 2179056,
      "byteStride": 8,
      "name": "floatBufferViews",
      "target": 34962
    },
    {
      "buffer": 0,
      "byteLength": 2211912,
      "byteOffset": 2916360,
      "byteStride": 12,
      "name": "floatBufferViews",
      "target": 34962
    }
  ],
  "buffers": [
    {
      "byteLength": 5128272,
      "uri": "scene.bin"
    }
  ],
  "extensionsUsed": [
    "KHR_materials_unlit"
  ],
  "images": [
    {
      "uri": "textures/material_0_baseColor.png"
    },
    {
      "uri": "textures/material_1_baseColor.png"
    }
  ],
  "materials": [
    {
      "doubleSided": true,
      "extensions": {
        "KHR_materials_unlit": {}
      },
      "name": "material_0",
      "pbrMetallicRoughness": {
        "baseColorTexture": {
          "index": 0
        },
        "metallicFactor": 0.0
      }
    },
    {
      "doubleSided": true,
      "extensions": {
        "KHR_materials_unlit": {}
      },
      "name": "material_1",
      "pbrMetallicRoughness": {
        "baseColorTexture": {
          "index": 1
        },
        "metallicFactor": 0.0
      }
    }
  ],
  "meshes": [
    {
      "name": "Object_0",
      "primitives": [
        {
          "attributes": {
            "NORMAL": 1,
            "POSITION": 0,
            "TEXCOORD_0": 2
          },
          "indices": 3,
          "material": 0,
          "mode": 4
        }
      ]
    },
    {
      "name": "Object_1",
      "primitives": [
        {
          "attributes": {
            "NORMAL": 5,
            "POSITION": 4,
            "TEXCOORD_0": 6
          },
          "indices": 7,
          "material": 1,
          "mode": 4
        }
      ]
    }
  ],
  "nodes": [
    {
      "children": [
        1
      ],
      "matrix": [
        0.9996647834777832,
        -0.020786900073289875,
        0.01543345302343368,
        0.0,
        0.0038316247519105673,
        -0.47076788544654824,
        -0.8822487592697145,
        0.0,
        0.025604791939258575,
        0.8820121884346009,
        -0.47053045034408547,
        0.0,
        0.05559300258755684,
        7.530508518218993,
        2.8204405307769793,
        1.0
      ],
      "name": "Sketchfab_model"
    },
    {
      "children": [
        2,
        3
      ],
      "name": "blueberrymuffined2.obj.cleaner.materialmerger.gles"
    },
    {
      "mesh": 0,
      "name": "Object_2"
    },
    {
      "mesh": 1,
      "name": "Object_3"
    }
  ],
  "samplers": [
    {
      "magFilter": 9729,
      "minFilter": 9987,
      "wrapS": 10497,
      "wrapT": 10497
    }
  ],
  "scene": 0,
  "scenes": [
    {
      "name": "Sketchfab_Scene",
      "nodes": [
        0
      ]
    }
  ],
  "textures": [
    {
      "sampler": 0,
      "source": 0
    },
    {
      "sampler": 0,
      "source": 1
    }
  ]
}
